PathFileType	3	(X/Y/Z)	D:\Vicon Database\Healthy Subjects\S0040\Jan. 30, 2020\Force Plate Walk 5.trc
DataRate	CameraRate	NumFrames	NumMarkers	Units	OrigDataRate	OrigDataStartFrame	OrigNumFrames
100.0	100.0	6	53	mm	100.0	472	326	
Frame#	Time	right_foot_cluster2			right_foot_cluster3			sternum_cluster1			sternum_cluster2			sternum_cluster3			left_asis			right_asis			left_psis			right_psis			sacrum_cluster1			sacrum_cluster2			sacrum_cluster3			left_lat_femoral_epicondyle			left_anterior_thigh15			left_anterior_thigh25			left_anterior_thigh50			left_lateral_thigh25			left_lateral_thigh50			left_thigh_cluster1			left_thigh_cluster2			left_thigh_cluster3			left_fibular_head			left_tibial_tuberosity			left_anterior_shank30			left_lateral_malleolus			left_shank_cluster1			left_shank_cluster2			left_shank_cluster3			left_heel			left_metatarsal2			left_foot_cluster1			left_foot_cluster2			left_foot_cluster3			right_lat_femoral_epicondyle			right_anterior_thigh15			right_anterior_thigh25			right_anterior_thigh50			right_lateral_thigh25			right_lateral_thigh50			right_thigh_cluster1			right_thigh_cluster2			right_thigh_cluster3			right_fibular_head			right_tibial_tuberosity			right_lateral_distal_shank			right_anterior_shank30			right_lateral_malleolus			right_shank_cluster1			right_shank_cluster2			right_shank_cluster3			right_heel			right_metatarsal2			right_foot_cluster1			
		X1	Y1	Z1	X2	Y2	Z2	X3	Y3	Z3	X4	Y4	Z4	X5	Y5	Z5	X6	Y6	Z6	X7	Y7	Z7	X8	Y8	Z8	X9	Y9	Z9	X10	Y10	Z10	X11	Y11	Z11	X12	Y12	Z12	X13	Y13	Z13	X14	Y14	Z14	X15	Y15	Z15	X16	Y16	Z16	X17	Y17	Z17	X18	Y18	Z18	X19	Y19	Z19	X20	Y20	Z20	X21	Y21	Z21	X22	Y22	Z22	X23	Y23	Z23	X24	Y24	Z24	X25	Y25	Z25	X26	Y26	Z26	X27	Y27	Z27	X28	Y28	Z28	X29	Y29	Z29	X30	Y30	Z30	X31	Y31	Z31	X32	Y32	Z32	X33	Y33	Z33	X34	Y34	Z34	X35	Y35	Z35	X36	Y36	Z36	X37	Y37	Z37	X38	Y38	Z38	X39	Y39	Z39	X40	Y40	Z40	X41	Y41	Z41	X42	Y42	Z42	X43	Y43	Z43	X44	Y44	Z44	X45	Y45	Z45	X46	Y46	Z46	X47	Y47	Z47	X48	Y48	Z48	X49	Y49	Z49	X50	Y50	Z50	X51	Y51	Z51	X52	Y52	Z52	X53	Y53	Z53	
472	4.71	682.63873	97.60936	-196.14561	680.97217	101.20678	-233.28406	322.67096	1413.4482	-108.51167	310.3399	1386.3539	-98.88829	306.92609	1389.7198	-136.5621	340.10779	1034.1296	-1.3012065	325.86996	1033.7584	-250.42996	503.5177	1047.1233	-51.534752	496.26889	1053.1309	-169.35542	509.31644	1107.0864	-116.91638	514.28131	1082.1389	-129.90613	519.76123	1075.8308	-91.127625	222.48703	537.4837	25.134596	165.89546	648.33386	-24.421122	187.90515	729.18292	-8.2862854	246.62059	850.61963	6.4152822	284.40015	676.63855	48.680996	341.78458	814.49463	74.346214	325.68701	769.81592	81.202286	316.96249	740.99451	77.580788	287.3511	763.31213	84.018044	190.57878	465.58694	32.236813	132.85471	474.39703	-22.179207	81.681221	227.29726	-28.991179	91.730873	101.95219	0.6704787	117.49762	421.34885	-50.004692	104.86606	396.40366	-41.550274	120.30801	391.58261	-76.99839	150.42912	52.894634	-41.508526	-53.58493	119.0914	-28.949755	14.963229	144.45145	-24.270254	-12.515076	135.66234	-13.991035	-15.570962	143.93568	-51.245789	547.77539	525.27991	-263.44055	435.06491	572.10144	-206.9592	380.64307	642.80341	-207.08215	330.62164	768.00604	-220.37601	483.29214	672.14233	-285.24237	433.06271	809.98859	-309.92963	457.89093	763.63269	-315.89166	455.9686	735.297	-311.86407	492.35944	745.53436	-306.38272	589.1673	469.23856	-267.64035	546.12115	434.46234	-221.43141	731.00214	237.21364	-257.73166	684.69104	225.86403	-211.54539	784.51068	144.74269	-245.21245	588.08582	380.29831	-168.22208	606.12769	358.74127	-162.04575				869.2547	140.57091	-212.13376	666.90247	55.515564	-206.961	698.362	120.02646	-204.66646
473	4.72	677.93469	96.70742	-196.61414	675.59692	100.55244	-233.80515	307.53845	1412.442	-106.72165	294.98788	1385.4622	-97.057175	291.75369	1388.78	-134.77568	323.08896	1032.9716	0.9400112	308.70242	1032.4628	-248.14171	486.76501	1045.6628	-49.356411	479.43359	1051.454	-167.26715	492.58945	1105.6989	-114.77047	497.54434	1080.803	-127.77302	503.04913	1074.4099	-89.065796	203.93411	537.03174	27.100077	148.38071	648.10529	-22.131498	170.77589	728.07404	-7.2007365	229.0683	849.2359	7.4298444	266.89432	675.24945	50.506275	323.74872	813.34058	76.57962	307.70728	768.41943	83.391243	298.62506	739.79907	79.645332	269.04797	762.35852	85.616898	173.80728	464.46735	33.011345	115.98462	472.46381	-21.501171	71.459312	223.78513	-28.520376	85.149323	99.565773	0.59925532	102.12496	418.94858	-49.422813	90.51226	393.47287	-41.142399	105.79531	389.28534	-76.335274	148.07138	55.843796	-40.392334	-60.531715	109.10973	-30.931238	6.3926673	138.12872	-25.526695	-20.592476	127.71891	-15.573116	-23.752264	135.90956	-52.940102	528.17285	522.84637	-262.66467	414.78677	569.43127	-206.65767	361.33511	640.966	-206.39592	312.59641	766.71918	-218.73869	464.87277	670.02399	-284.09763	415.72229	808.448	-307.83554	440.32605	762.09283	-313.64578	437.89072	733.88489	-310.04514	474.30209	743.8844	-304.30902	570.49127	467.59363	-267.27859	528.47174	431.37466	-221.06601	720.7359	240.82135	-257.66647	674.75085	227.59312	-211.76204	776.51886	150.09079	-245.99167	572.49774	378.30136	-168.00534	591.28149	357.47833	-161.89609				861.72083	150.12048	-212.22983	664.61859	54.470528	-207.25499	692.13165	120.24885	-205.16052
474	4.73	672.14386	95.983513	-196.91835	669.78253	99.571747	-234.13925	292.38724	1411.8541	-104.89533	279.6767	1384.9508	-95.22493	276.64804	1388.2084	-132.97629	306.03381	1032.228	3.3604014	291.49454	1031.459	-245.68524	470.08646	1044.556	-47.214893	462.48956	1050.0648	-165.09142	475.7836	1104.4152	-112.90077	480.71387	1079.5143	-125.89894	486.47372	1073.2803	-87.134422	186.32391	536.53467	28.560747	131.1282	646.97552	-20.515202	152.91321	727.62781	-6.5759759	211.62128	848.25775	8.6854515	249.99374	674.35596	51.877163	305.84204	812.5899	78.989723	289.86105	767.41699	85.28614	281.09665	738.75311	81.24585	251.17421	761.16931	86.58667	156.5957	463.97388	34.497375	99.020035	470.94839	-20.135839	60.982182	221.29781	-28.782236	79.015747	97.553566	0.66931266	86.709213	417.49127	-48.971237	75.653847	391.75443	-40.815132	91.407112	388.00534	-75.852821	144.25067	57.002766	-40.012772	-66.750412	99.654205	-32.26936	-1.511746	132.19899	-26.24696	-28.005232	120.3235	-16.5194	-31.339727	128.5641	-53.866947	507.04004	520.38629	-261.93561	393.11908	566.84644	-206.19511	341.07474	639.33624	-205.51753	294.09192	765.84387	-216.86891	444.89545	668.09479	-282.59622	397.01205	806.70984	-305.26581	421.41666	760.64032	-311.48169	419.29541	732.47137	-308.05151	455.51627	742.09137	-302.08325	550.82727	465.79526	-266.7998	509.05014	428.04727	-220.97897	708.68835	244.75706	-257.88953	663.29102	229.71678	-212.06627	768.8045	155.77309	-246.24927	555.53571	376.40152	-167.95833	575.0849	356.34488	-161.84079				852.34143	160.41241	-212.27499	661.49713	53.552719	-207.36397	684.41736	120.53548	-205.28348
475	4.74	665.28198	95.404137	-196.95433	662.98328	98.807182	-234.38329	277.19812	1411.6442	-102.97264	264.40671	1384.78	-93.320488	261.38541	1388.0427	-131.02589	288.9646	1032.074	5.8978963	274.30316	1030.7157	-242.98232	453.48224	1043.7306	-45.222176	445.35986	1048.4076	-163.74443	459.20297	1103.6145	-111.13616	464.10904	1078.7006	-124.04909	470.02521	1072.4403	-85.340179	169.71948	536.04645	29.564543	113.17661	646.80426	-20.502024	134.93242	728.09351	-5.9518695	194.38525	847.95105	10.228191	234.00441	673.58441	53.074135	288.44864	811.99127	80.825569	272.30585	767.07007	86.446709	264.12167	738.28583	82.464378	233.74265	760.42633	87.657951	139.51039	463.96548	35.640526	82.566597	469.91641	-19.391216	50.909508	219.09721	-29.741722	74.161057	96.155037	0.60297477	71.707458	416.08179	-49.011162	61.225452	390.01672	-41.008526	77.555046	386.6918	-75.847221	140.75099	57.963909	-41.133121	-71.756256	91.770874	-33.083839	-7.816515	127.47333	-26.995823	-33.763363	114.454	-17.344389	-37.412548	122.38364	-54.656193	485.02014	517.8219	-261.2934	368.94406	564.61993	-206.28317	319.91486	637.90802	-204.43427	275.16718	765.30957	-214.76984	424.51053	666.15649	-281.35898	378.64606	805.25244	-302.88684	402.10184	759.28491	-309.20111	399.5694	730.98035	-306.07617	436.31299	740.04437	-299.82739	529.88806	464.48627	-267.28726	487.56046	424.47144	-221.50844	695.56293	249.08652	-257.79703	650.40106	232.11455	-212.46736	758.01154	161.96791	-246.88756	537.12842	374.47766	-168.11368	557.38348	355.15002	-162.0359				841.07111	171.90103	-212.23543	657.91699	52.870384	-207.35432	675.88141	120.85643	-205.53093
476	4.75	657.46893	94.922775	-197.46272	655.42224	97.921539	-234.65247	262.03278	1411.7039	-101.0501	249.0831	1384.9276	-91.415085	246.24544	1388.1379	-129.15007	271.94141	1032.4542	8.4324684	257.43427	1030.3352	-240.52296	437.02267	1043.4231	-43.223919	428.79095	1047.8857	-161.47858	442.84476	1103.0698	-109.40443	447.57101	1078.0172	-122.32129	453.49402	1071.5859	-83.759392	152.71431	536.41302	30.778986	95.758896	646.8125	-20.361155	117.42462	729.14404	-4.7372413	177.00685	848.67139	12.137246	217.35457	673.40729	54.000854	271.19409	811.82629	82.102623	254.90608	767.37433	87.815323	246.98248	738.4068	83.727249	216.4536	760.49115	88.685478	122.28911	464.3063	36.770115	66.244698	469.32358	-19.039923	42.065067	216.87735	-31.032318	70.545738	95.421783	0.21078245	57.260582	414.51309	-49.308239	47.476807	388.18796	-41.433361	64.379044	385.39716	-76.023438	138.86447	58.739838	-41.128784	-75.329285	85.961128	-33.906952	-12.106211	124.06232	-27.989147	-37.599964	110.30712	-18.162447	-41.619305	117.89658	-55.566795	461.65173	515.01978	-261.24374	345.94202	562.04346	-205.67764	298.01517	636.68738	-203.34404	255.91293	765.10413	-212.55212	403.44794	663.77722	-279.68002	359.60214	803.55261	-300.45508	382.60245	757.60828	-306.68762	379.47421	729.45233	-304.07251	416.21094	738.00031	-297.98212	507.82056	462.82709	-267.47232	464.62122	420.79108	-222.58075	680.76154	253.66858	-257.78259	636.04865	234.66713	-212.91927	745.82751	168.49617	-247.05614	516.98334	372.37622	-168.60486	537.96967	353.7952	-162.49423				827.63745	184.39748	-211.65092	654.22083	52.149246	-207.50972	666.34106	120.97205	-205.84512
477	4.76	649.08777	94.466621	-197.41418	647.24927	97.095398	-234.70921	246.87874	1412.0142	-99.087929	233.81334	1385.2926	-89.436409	231.10423	1388.4795	-127.19836	256.18344	1032.7786	10.30529	241.00974	1030.2401	-238.20972	420.68484	1043.2034	-41.42524	412.78592	1047.6115	-159.392	426.77933	1102.6165	-107.87682	431.54718	1077.6757	-120.61741	437.38303	1071.3151	-82.045418	135.15822	537.38818	32.141621	78.574158	647.54102	-18.98138	100.22314	730.28381	-2.9075835	159.62	850.11188	14.554977	199.51605	674.30591	55.173389	254.25317	812.30035	83.554192	237.95457	767.68359	89.402	229.6503	738.94885	85.309677	199.30315	761.27563	90.542641	104.82701	464.86459	37.760757	50.66526	468.7717	-19.124994	34.599583	214.76495	-32.584263	68.189148	94.958313	-0.35181448	43.651134	412.97614	-49.55151	34.572918	386.32468	-41.850819	51.995876	384.15942	-76.230713	138.06206	58.888454	-40.266602	-77.577469	82.041977	-34.704269	-14.732757	121.9362	-29.102577	-39.941601	107.80331	-19.002487	-44.137543	114.89284	-56.474892	437.0177	512.05048	-261.56863	321.32455	559.62646	-205.5638	275.31546	635.70911	-202.42917	236.422	765.15527	-210.39128	381.53308	661.19421	-278.65829	340.20944	801.98431	-297.82706	362.3717	756.03845	-304.56873	358.92758	727.81134	-302.18842	395.59671	735.76697	-295.6041	484.19678	460.98645	-267.86923	443.49149	417.41928	-223.58516	664.16412	258.21988	-257.9241	620.01324	237.20857	-213.57025	731.83203	175.34981	-247.16917	495.30481	369.91757	-169.47719	517.03241	352.15158	-163.28023				811.76184	198.08563	-210.78081	648.96265	52.333523	-207.49142	656.21417	120.87947	-205.97557
